<svg width="72" height="72" viewBox="0 0 72 72" fill="none" xmlns="http://www.w3.org/2000/svg">
<path d="M0 36C0 16.1178 16.1178 0 36 0C55.8823 0 72 16.1178 72 36C72 55.8823 55.8823 72 36 72C16.1178 72 0 55.8823 0 36Z" fill="#E74040"/>
<g clip-path="url(#clip0_1_133)">
<path d="M30.25 40.5884V43.5C30.25 48.1527 34.0348 52 38.6875 52C43.3402 52 47.125 48.1527 47.125 43.5V42.4676C49.262 42.0321 50.875 40.1385 50.875 37.875C50.875 35.2904 48.7721 33.1875 46.1875 33.1875C43.603 33.1875 41.5 35.2904 41.5 37.875C41.5 40.1385 43.1131 42.0321 45.25 42.4676V43.5C45.25 47.1182 42.3057 50.125 38.6875 50.125C35.0693 50.125 32.125 47.1182 32.125 43.5V40.5896C35.9511 39.8877 40.3667 35.1368 41.1311 30.6176C41.6323 27.6493 40.3938 25.273 37.75 24.0844V22.8125C37.75 21.2616 36.4884 20 34.9375 20C33.3866 20 32.125 21.2616 32.125 22.8125C32.125 24.3634 33.3866 25.625 34.9375 25.625H36.602C38.7591 26.4237 39.6658 28.0357 39.2817 30.3054C38.6234 34.201 34.2362 38.8125 31.1875 38.8125C27.773 38.8125 23.0271 33.3901 22.9983 29.375C22.9855 27.5853 23.9232 26.3021 25.7479 25.625H27.4375C28.9884 25.625 30.25 24.3634 30.25 22.8125C30.25 21.2616 28.9885 20 27.4375 20C25.8866 20 24.625 21.2616 24.625 22.8125V24.074C22.3698 25.0839 21.1201 26.9762 21.125 29.375C21.1346 34.0759 26.0051 39.802 30.25 40.5884ZM45.25 36.9375H47.125V38.8125H45.25V36.9375Z" fill="white"/>
</g>
<defs>
<clipPath id="clip0_1_133">
<rect width="32" height="32" fill="white" transform="translate(20 20)"/>
</clipPath>
</defs>
</svg>
