<svg width="72" height="72" viewBox="0 0 72 72" fill="none" xmlns="http://www.w3.org/2000/svg">
<path d="M0 36C0 16.1178 16.1178 0 36 0C55.8823 0 72 16.1178 72 36C72 55.8823 55.8823 72 36 72C16.1178 72 0 55.8823 0 36Z" fill="#E74040"/>
<g clip-path="url(#clip0_1_122)">
<g clip-path="url(#clip1_1_122)">
<path d="M35.9909 24.218C29.0159 18.1173 20.1472 23.4776 20.0018 30.7442C19.9647 32.5961 20.4993 34.4 21.5634 36.0631H28.4607L29.6874 34.0184C30.0437 33.4247 30.9057 33.4056 31.2821 33.9974L33.8705 38.0648L37.6435 30.0997C37.9726 29.4047 38.9532 29.3827 39.3161 30.0566L42.5503 36.0631H50.4184C56.2468 26.9538 44.7279 16.5764 35.9909 24.218Z" fill="white"/>
<path d="M41.1656 37.4448L38.5448 32.5776L34.8387 40.4014C34.5234 41.0671 33.5961 41.1249 33.2007 40.5034L30.5152 36.2835L29.7957 37.4827C29.6263 37.7651 29.3212 37.9378 28.9919 37.9378H23.0469C23.2332 38.1328 22.24 37.1416 35.3302 50.164C35.6958 50.5278 36.2868 50.5278 36.6525 50.164C49.5412 37.342 48.7498 38.1325 48.9358 37.9378H41.9909C41.646 37.9379 41.329 37.7485 41.1656 37.4448Z" fill="white"/>
</g>
</g>
<defs>
<clipPath id="clip0_1_122">
<rect width="32" height="32" fill="white" transform="translate(20 20)"/>
</clipPath>
<clipPath id="clip1_1_122">
<rect width="32" height="32" fill="white" transform="translate(20 20)"/>
</clipPath>
</defs>
</svg>
