<svg width="171" height="20" viewBox="0 0 171 20" fill="none" xmlns="http://www.w3.org/2000/svg">
<path d="M15.088 8.44L10.552 17.608H8.32L3.808 8.44V19H0.0640001V2.224H5.128L9.448 11.44L13.792 2.224H18.832V19H15.088V8.44ZM33.8864 17.128C32.4304 18.504 30.7184 19.192 28.7504 19.192C26.7984 19.192 25.1824 18.592 23.9024 17.392C22.6224 16.176 21.9824 14.552 21.9824 12.52C21.9824 10.488 22.6304 8.872 23.9264 7.672C25.2384 6.472 26.7824 5.872 28.5584 5.872C30.3344 5.872 31.8384 6.408 33.0704 7.48C34.3184 8.552 34.9424 10.024 34.9424 11.896V13.816H25.5344C25.6464 14.52 26.0144 15.096 26.6384 15.544C27.2624 15.992 27.9664 16.216 28.7504 16.216C30.0144 16.216 31.0544 15.792 31.8704 14.944L33.8864 17.128ZM31.2944 11.248C31.2144 10.48 30.9264 9.888 30.4304 9.472C29.9344 9.056 29.3264 8.848 28.6064 8.848C27.9024 8.848 27.2544 9.064 26.6624 9.496C26.0704 9.928 25.7264 10.512 25.6304 11.248H31.2944ZM42.7984 19.192C41.2784 19.192 39.9184 18.544 38.7184 17.248C37.5184 15.952 36.9184 14.344 36.9184 12.424C36.9184 10.504 37.5024 8.936 38.6704 7.72C39.8384 6.488 41.2064 5.872 42.7744 5.872C44.3424 5.872 45.6224 6.424 46.6144 7.528V1.192H50.2144V19H46.6144V17.296C45.6064 18.56 44.3344 19.192 42.7984 19.192ZM40.5424 12.568C40.5424 13.608 40.8544 14.464 41.4784 15.136C42.1024 15.792 42.8304 16.12 43.6624 16.12C44.4944 16.12 45.1984 15.792 45.7744 15.136C46.3664 14.464 46.6624 13.608 46.6624 12.568C46.6624 11.512 46.3664 10.64 45.7744 9.952C45.1984 9.248 44.4864 8.896 43.6384 8.896C42.7904 8.896 42.0624 9.248 41.4544 9.952C40.8464 10.656 40.5424 11.528 40.5424 12.568ZM57.3227 19H53.7227V6.088H57.3227V19ZM54.0107 4.456C53.6107 4.04 53.4107 3.536 53.4107 2.944C53.4107 2.352 53.6107 1.856 54.0107 1.456C54.4267 1.04 54.9307 0.831999 55.5227 0.831999C56.1147 0.831999 56.6107 1.04 57.0107 1.456C57.4267 1.856 57.6347 2.352 57.6347 2.944C57.6347 3.536 57.4267 4.04 57.0107 4.456C56.6107 4.856 56.1147 5.056 55.5227 5.056C54.9307 5.056 54.4267 4.856 54.0107 4.456ZM67.0226 16C68.2226 16 69.3026 15.4 70.2626 14.2L72.3986 16.6C70.7346 18.328 68.9346 19.192 66.9986 19.192C65.0626 19.192 63.4226 18.584 62.0786 17.368C60.7506 16.136 60.0866 14.536 60.0866 12.568C60.0866 10.584 60.7586 8.976 62.1026 7.744C63.4626 6.496 65.0706 5.872 66.9266 5.872C67.8546 5.872 68.7906 6.064 69.7346 6.448C70.6946 6.832 71.5346 7.4 72.2546 8.152L70.3826 10.6C69.9666 10.104 69.4546 9.72 68.8466 9.448C68.2546 9.176 67.6626 9.04 67.0706 9.04C66.1266 9.04 65.3106 9.352 64.6226 9.976C63.9506 10.584 63.6146 11.44 63.6146 12.544C63.6146 13.632 63.9506 14.48 64.6226 15.088C65.3106 15.696 66.1106 16 67.0226 16ZM85.8673 19H82.4833V17.44C81.5553 18.608 80.4033 19.192 79.0273 19.192C77.6673 19.192 76.5233 18.8 75.5953 18.016C74.6673 17.216 74.2033 16.16 74.2033 14.848C74.2033 13.52 74.6833 12.528 75.6433 11.872C76.6033 11.216 77.9153 10.888 79.5793 10.888H82.2673V10.816C82.2673 9.44 81.5393 8.752 80.0833 8.752C79.4593 8.752 78.7953 8.88 78.0913 9.136C77.4033 9.376 76.8193 9.68 76.3393 10.048L74.7313 7.72C76.4273 6.488 78.3633 5.872 80.5393 5.872C82.1073 5.872 83.3873 6.264 84.3793 7.048C85.3713 7.832 85.8673 9.072 85.8673 10.768V19ZM82.2433 14.08V13.456H79.9873C78.5473 13.456 77.8273 13.904 77.8273 14.8C77.8273 15.264 77.9953 15.624 78.3313 15.88C78.6833 16.12 79.1793 16.24 79.8193 16.24C80.4593 16.24 81.0193 16.048 81.4993 15.664C81.9953 15.264 82.2433 14.736 82.2433 14.08ZM92.8493 19H89.2493V1.192H92.8493V19ZM110.325 7.792C110.325 10.48 109.261 12.216 107.133 13L111.381 19H106.773L103.053 13.648H100.461V19H96.7171V2.224H103.077C105.685 2.224 107.541 2.664 108.645 3.544C109.765 4.424 110.325 5.84 110.325 7.792ZM103.197 10.408C104.477 10.408 105.349 10.2 105.813 9.784C106.277 9.368 106.509 8.712 106.509 7.816C106.509 6.904 106.269 6.28 105.789 5.944C105.309 5.608 104.469 5.44 103.269 5.44H100.461V10.408H103.197ZM125.079 17.128C123.623 18.504 121.911 19.192 119.943 19.192C117.991 19.192 116.375 18.592 115.095 17.392C113.815 16.176 113.175 14.552 113.175 12.52C113.175 10.488 113.823 8.872 115.119 7.672C116.431 6.472 117.975 5.872 119.751 5.872C121.527 5.872 123.031 6.408 124.263 7.48C125.511 8.552 126.135 10.024 126.135 11.896V13.816H116.727C116.839 14.52 117.207 15.096 117.831 15.544C118.455 15.992 119.159 16.216 119.943 16.216C121.207 16.216 122.247 15.792 123.063 14.944L125.079 17.128ZM122.487 11.248C122.407 10.48 122.119 9.888 121.623 9.472C121.127 9.056 120.519 8.848 119.799 8.848C119.095 8.848 118.447 9.064 117.855 9.496C117.263 9.928 116.919 10.512 116.823 11.248H122.487ZM135.023 16C136.223 16 137.303 15.4 138.263 14.2L140.399 16.6C138.735 18.328 136.935 19.192 134.999 19.192C133.063 19.192 131.423 18.584 130.079 17.368C128.751 16.136 128.087 14.536 128.087 12.568C128.087 10.584 128.759 8.976 130.103 7.744C131.463 6.496 133.071 5.872 134.927 5.872C135.855 5.872 136.791 6.064 137.735 6.448C138.695 6.832 139.535 7.4 140.255 8.152L138.383 10.6C137.967 10.104 137.455 9.72 136.847 9.448C136.255 9.176 135.663 9.04 135.071 9.04C134.127 9.04 133.311 9.352 132.623 9.976C131.951 10.584 131.615 11.44 131.615 12.544C131.615 13.632 131.951 14.48 132.623 15.088C133.311 15.696 134.111 16 135.023 16ZM145.568 12.544C145.568 13.6 145.864 14.464 146.456 15.136C147.064 15.792 147.832 16.12 148.76 16.12C149.704 16.12 150.472 15.792 151.064 15.136C151.672 14.464 151.976 13.6 151.976 12.544C151.976 11.488 151.672 10.624 151.064 9.952C150.472 9.28 149.704 8.944 148.76 8.944C147.832 8.944 147.064 9.28 146.456 9.952C145.864 10.624 145.568 11.488 145.568 12.544ZM155.6 12.544C155.6 14.416 154.952 15.992 153.656 17.272C152.36 18.552 150.728 19.192 148.76 19.192C146.808 19.192 145.184 18.552 143.888 17.272C142.592 15.992 141.944 14.416 141.944 12.544C141.944 10.672 142.592 9.096 143.888 7.816C145.184 6.52 146.808 5.872 148.76 5.872C150.728 5.872 152.36 6.52 153.656 7.816C154.952 9.096 155.6 10.672 155.6 12.544ZM161.573 19L156.461 6.064H160.205L163.421 14.2L166.637 6.064H170.381L165.269 19H161.573Z" fill="#252B42"/>
</svg>
